<svg id="Слой_1" data-name="Слой 1" xmlns="http://www.w3.org/2000/svg" xmlns:xlink="http://www.w3.org/1999/xlink" viewBox="0 0 16.667 16.667"><defs><style>.cls-1{fill:url(#Безымянный_градиент);}.cls-2{fill:#fff;}</style><linearGradient id="Безымянный_градиент" x1="134.458" y1="-14.368" x2="162.742" y2="-42.652" gradientTransform="matrix(0.417, 0, 0, -0.417, -51.917, -1.879)" gradientUnits="userSpaceOnUse"><stop offset="0" stop-color="#33bef0"/><stop offset="1" stop-color="#0a85d9"/></linearGradient></defs><title>telegram-footer</title><path class="cls-1" d="M18.333,10A8.333,8.333,0,1,1,10,1.667,8.334,8.334,0,0,1,18.333,10Z" transform="translate(-1.667 -1.667)"/><path class="cls-2" d="M4.814,9.882c2.912-1.281,6.681-2.843,7.2-3.06,1.365-.566,1.783-.457,1.575.8-.15.9-.583,3.883-.927,5.739-.2,1.1-.664,1.231-1.385.755-.347-.229-2.1-1.388-2.48-1.66-.347-.248-.826-.546-.225-1.134.214-.209,1.614-1.547,2.705-2.588a.162.162,0,0,0-.2-.252c-1.471.975-3.51,2.329-3.77,2.505a1.51,1.51,0,0,1-1.445.194c-.511-.147-1.01-.322-1.2-.388C3.91,10.534,4.088,10.2,4.814,9.882Z" transform="translate(-1.667 -1.667)"/></svg>