<svg id="Слой_1" data-name="Слой 1" xmlns="http://www.w3.org/2000/svg" viewBox="0 0 17.588 15.995"><defs><style>.cls-1{fill:#2b2b2b;}</style></defs><title>telegram-header</title><path class="cls-1" d="M17.751,2.395a1.714,1.714,0,0,0-.555.131c-.169.068-1.144.484-2.583,1.1L9.448,5.836C5.74,7.425,2.1,8.988,2.1,8.988l.027-.01a1.951,1.951,0,0,0-.443.229,1.231,1.231,0,0,0-.33.324.858.858,0,0,0-.143.573,1.264,1.264,0,0,0,.893.988l0,0,3.561,1.219c.091.3,1.08,3.6,1.3,4.3a2.387,2.387,0,0,0,.35.762.741.741,0,0,0,.188.178.522.522,0,0,0,.084.041h0l.01,0-.009,0,.02.009a.284.284,0,0,0,.037.008.841.841,0,0,0,.745-.122l.014-.011,2.188-2.029,3.55,2.768.045.02a1.438,1.438,0,0,0,1.495-.131,1.525,1.525,0,0,0,.434-.58l.013-.034L18.733,3.9a1.7,1.7,0,0,0,.013-.8.935.935,0,0,0-.408-.559A1.035,1.035,0,0,0,17.751,2.395Zm.021.813a.367.367,0,0,1,.156.016c.018.011.027.01.045.077a.984.984,0,0,1-.021.429l0,0L15.356,17.252a.672.672,0,0,1-.184.239c-.126.1-.266.182-.638.027L10.653,14.49l-.109-.086,0,0L9.38,13.535,15.9,5.859a.4.4,0,0,0-.527-.592L5.938,11.561,2.371,10.34s-.354-.2-.371-.334c0-.008-.005,0,.013-.028a.524.524,0,0,1,.123-.114,1.256,1.256,0,0,1,.248-.13l.013,0,.013-.005S6.056,8.16,9.764,6.571l5.163-2.21C16.366,3.746,17.4,3.3,17.493,3.268A.871.871,0,0,1,17.772,3.208ZM13.445,7.517,8.5,13.338l0,0-.022.029a.409.409,0,0,0-.074.188v0l-.645,2.9c-.011-.031-.018-.043-.03-.08h0c-.2-.658-1.138-3.772-1.267-4.2ZM9.056,14.292l.889.667L8.639,16.17Z" transform="translate(-1.2 -2.393)"/></svg>