<svg id="Слой_1" data-name="Слой 1" xmlns="http://www.w3.org/2000/svg" viewBox="0 0 18.4 18.4"><defs><style>.cls-1{fill:#2b2b2b;}</style></defs><title>whatsapp-header</title><path class="cls-1" d="M10,.8A9.162,9.162,0,0,0,1.994,14.484L.815,18.692a.4.4,0,0,0,.481.5L5.684,18.1A9.191,9.191,0,1,0,10,.8Zm0,.8A8.4,8.4,0,1,1,5.9,17.334a.4.4,0,0,0-.291-.039l-3.843.952L2.8,14.57a.4.4,0,0,0-.04-.312A8.4,8.4,0,0,1,10,1.6ZM6.657,5.2a1.272,1.272,0,0,0-.923.42A3.115,3.115,0,0,0,4.8,7.837a4.717,4.717,0,0,0,1.045,2.654h0c-.011-.014.143.209.348.476a12.668,12.668,0,0,0,.853,1,9.263,9.263,0,0,0,2.995,2.174,14.255,14.255,0,0,0,1.384.5,3.687,3.687,0,0,0,1.666.106,2.812,2.812,0,0,0,1.048-.433A1.944,1.944,0,0,0,15,13.382a3.3,3.3,0,0,0,.188-.823,1.888,1.888,0,0,0,0-.315.548.548,0,0,0-.088-.314c-.186-.306-.4-.314-.617-.423-.122-.061-.47-.231-.82-.4s-.651-.313-.837-.38a.943.943,0,0,0-.468-.08.8.8,0,0,0-.53.349c-.113.167-.567.7-.705.861l-.045-.023c-.171-.085-.381-.157-.691-.32a5.713,5.713,0,0,1-1.122-.779h0A6.605,6.605,0,0,1,8.059,9.25c.009-.011,0,0,.019-.017h0c.143-.14.269-.308.376-.431a1.994,1.994,0,0,0,.291-.472.884.884,0,0,0-.02-.767h0c.006.011-.045-.1-.1-.23s-.125-.3-.2-.478c-.15-.359-.317-.762-.416-1h0a1.041,1.041,0,0,0-.483-.575.773.773,0,0,0-.4-.07h0C6.98,5.2,6.818,5.2,6.657,5.2Zm0,.8c.154,0,.306,0,.434.008s.123.007.1,0,.009-.016.084.161c.1.231.265.636.416,1,.075.18.145.349.2.482s.087.207.122.277h0c.035.068.032.025.02.048a1.166,1.166,0,0,1-.181.307c-.13.15-.263.317-.333.386A.861.861,0,0,0,7.276,9a.774.774,0,0,0,.074.626,7.319,7.319,0,0,0,1.394,1.713,6.54,6.54,0,0,0,1.277.887c.355.187.645.3.709.329a.9.9,0,0,0,.517.112.779.779,0,0,0,.471-.263h0c.143-.162.567-.646.77-.945.009,0,.006,0,.073.025h0c.031.011.418.184.763.348s.695.335.809.391c.164.081.242.134.262.134a.94.94,0,0,1,0,.131,2.546,2.546,0,0,1-.143.621,1.508,1.508,0,0,1-.538.532,2.488,2.488,0,0,1-.738.317,2.867,2.867,0,0,1-1.309-.078,13.369,13.369,0,0,1-1.309-.477,8.549,8.549,0,0,1-2.728-1.989,11.886,11.886,0,0,1-.8-.935c-.192-.249-.275-.379-.345-.471h0A4.321,4.321,0,0,1,5.6,7.837a2.109,2.109,0,0,1,.72-1.673A.474.474,0,0,1,6.657,6Z" transform="translate(-0.8 -0.8)"/></svg>