<svg id="Слой_1" data-name="Слой 1" xmlns="http://www.w3.org/2000/svg" viewBox="0 0 18.4 18.4"><defs><style>.cls-1{fill:#69be65;}</style></defs><title>whatsapp-footer</title><path class="cls-1" d="M10,.8A9.2,9.2,0,0,0,1.985,14.516L.815,18.692A.4.4,0,0,0,1.2,19.2a.412.412,0,0,0,.1-.012l4.358-1.08A9.2,9.2,0,1,0,10,.8Zm4.628,12.446a2.432,2.432,0,0,1-1.594,1.109,3.283,3.283,0,0,1-1.488-.092,13.842,13.842,0,0,1-1.346-.492A10.483,10.483,0,0,1,6.164,10.25,4.507,4.507,0,0,1,5.2,7.838a2.6,2.6,0,0,1,.827-1.946.873.873,0,0,1,.63-.292c.158,0,.315,0,.453.008s.34-.055.532.4.669,1.615.728,1.732a.426.426,0,0,1,.02.409,1.572,1.572,0,0,1-.236.389c-.118.136-.248.3-.354.409s-.241.242-.1.476a7.028,7.028,0,0,0,1.314,1.616,6.475,6.475,0,0,0,1.9,1.158c.236.117.374.1.512-.058s.59-.681.748-.914.315-.195.532-.117,1.378.642,1.614.758.394.175.453.272A1.923,1.923,0,0,1,14.628,13.246Z" transform="translate(-0.8 -0.8)"/></svg>